<?xml version="1.0" encoding="utf-8" ?>
<svg xmlns="http://www.w3.org/2000/svg" xmlns:xlink="http://www.w3.org/1999/xlink" width="100" height="51">
	<path fill="#F90E27" transform="scale(0.0488281 0.0498047)" d="M432.657 598.303C434.929 597.659 437.184 597.751 439.521 597.786C452.33 597.978 462.35 601.272 471.733 610.136C474.541 612.788 476.764 616.228 479.5 619.039C480.146 622.864 482.155 625.393 483.092 628.958C484.03 632.526 483.732 636.999 483.652 640.671C483.504 647.518 483.572 661.057 478.205 666.125C475.36 668.811 472.765 673.126 470.075 676.205C464.495 682.59 455.309 685.391 447.222 686.921C444.081 688.361 440.504 688.04 437.123 687.976C428.881 687.819 416.948 683.542 411.101 677.4L409.789 676.112L407.627 674.188C406.131 672.885 404.845 671.997 404.125 670.084C403.485 668.386 402.542 667.375 401.319 666.08L400.766 665.5C400.305 662.523 399.97 661.465 397.963 659.148C394.021 654.595 396.031 635.833 396.378 629.5C399.268 626.227 398.915 623.027 401.168 619.938C402.856 617.623 404.072 615.029 405.628 612.613L406.7 610.924C411.762 603.644 424.399 599.867 432.657 598.303Z"/>
	<path fill="#F90E27" transform="scale(0.0488281 0.0498047)" d="M1599.81 598.499C1603.69 598.143 1607.51 598.027 1611.38 598.512C1621.52 599.783 1633.37 602.713 1639.91 611.279L1640.92 612.519C1642.55 614.365 1646.98 619.111 1647.69 621.319C1647.93 622.096 1648.09 622.81 1648.47 623.54C1652.33 630.895 1651.06 641.869 1650.86 650.079C1650.76 654.138 1649.57 662.554 1646.37 665.424C1644.92 666.726 1641.76 671.247 1640.94 673.061C1639.37 676.536 1637 677.654 1634.31 680.141C1628.76 685.271 1618.7 688.041 1611.22 688.316C1602.93 690.886 1594.09 688.386 1586.61 684.412C1582.31 682.128 1573.64 676.244 1572.25 671.581C1571.57 669.311 1570.18 668.732 1569.06 666.899C1567.57 664.473 1567.16 662.574 1565.17 660.255L1564.51 659.5C1563.1 649.516 1563.2 636.698 1564.58 626.7C1567.07 623.957 1567.14 620.982 1569.26 618.436C1569.89 617.678 1570.47 617.044 1570.95 616.176C1571.7 614.826 1572.19 613.897 1573.35 612.837C1573.94 612.299 1574.42 611.923 1574.83 611.225L1575.48 610.127C1579.68 604.74 1593.14 599.694 1599.81 598.499Z"/>
	<path fill="#F90E27" transform="scale(0.0488281 0.0498047)" d="M1004.31 567.404C1003.95 572.096 1000.6 581.087 997.144 584.345C995.74 585.668 995.982 589.189 995.157 591.123C994.278 593.179 992.653 599.242 991.681 600.5C990.881 601.535 989.096 602.321 988.415 603.39C987.687 604.534 987.75 608.876 987.318 610.5C986.938 611.926 985.841 612.971 985.249 614.309C984.035 617.05 981.321 618.805 980.289 621.072C977.52 627.154 979.372 634.716 973.157 639.446C972.068 640.275 972.042 642.413 971.716 643.783C971.079 646.46 969.329 654.605 967.828 656.5C966.972 657.579 965.259 658.369 964.5 659.482C964.073 660.11 963.915 663.349 963.747 664.259C962.934 668.679 960.696 675.848 957.151 678.619C955.928 679.575 955.712 682.439 955.342 684C953.519 686.081 951.158 688.418 948.499 689.376C943.209 691.28 933.686 690.099 927.937 690.1L896.531 689.999C888.876 689.987 879.247 691.016 872.252 687.472C868.719 685.682 868.349 684.588 867.176 681C868.245 673.786 872.049 669.23 875.061 663C875.732 661.612 875.615 659.851 876.357 658.5C877.063 657.214 878.623 656.454 879.255 655.115C879.972 653.593 879.607 651.488 880.375 650.052C881.015 648.854 882.317 648.133 882.901 646.942C883.646 645.427 883.529 643.515 884.293 642C884.962 640.674 886.469 639.846 887.105 638.5C887.823 636.978 887.63 635.067 888.276 633.5C888.949 631.865 890.391 630.599 891.134 629C891.801 627.565 891.764 625.829 892.476 624.422C893.196 622.998 894.68 621.972 895.31 620.5C895.975 618.949 895.689 617.041 896.383 615.5C897.084 613.946 898.742 612.886 899.405 611.308C900.475 608.762 899.574 606.673 901.534 604.323C903.222 602.298 903.132 600.603 904.332 598.5C905.138 597.087 906.636 596.056 907.225 594.5C907.974 592.523 907.647 590.165 908.42 588.207C908.997 586.747 910.604 585.897 911.228 584.5C911.911 582.971 911.565 581.036 912.266 579.5C912.96 577.979 914.611 576.988 915.362 575.5C916.985 572.282 916.396 570.414 919.164 567.38C930.111 570.904 943.085 568.274 954.5 568.234C971.224 568.175 987.734 570.914 1004.31 567.404Z"/>
	<path fill="#F90E27" transform="scale(0.0488281 0.0498047)" d="M1039.74 571.732C1040.8 571.059 1042.12 569.982 1043.25 569.5C1047.28 567.786 1058.21 569.567 1062.95 569.635C1074.94 569.806 1087.01 568.715 1099 569.277C1106.61 569.634 1120.96 573.387 1127.58 569.119C1129.15 570.1 1130.74 571.096 1132.1 572.356C1132.96 573.146 1135.28 575.009 1135.73 576C1137.85 580.691 1138.55 586.72 1140.66 591.244C1141.3 592.619 1142.83 593.397 1143.5 594.741C1144.37 596.5 1144.36 598.676 1145.09 600.5C1146.34 603.665 1147.76 605.166 1148.5 608.791L1149.14 609.324C1153.32 612.883 1154.19 619.953 1156.24 624.92C1156.96 626.659 1158.82 627.474 1159.72 629.051C1162.89 634.611 1162.6 641.901 1167.59 646.5L1167.75 647.453C1168.59 652.434 1171.8 655.012 1172.5 660.145C1173.27 660.9 1175.54 662.639 1175.91 663.5C1176.36 664.547 1176.17 666.23 1176.69 667.212C1177.22 668.21 1178.77 668.991 1179.32 669.987C1179.62 670.535 1179.57 672.922 1179.65 673.654C1180.05 677.212 1181.06 678.729 1183.79 681C1183.8 682.026 1184.12 684.756 1183.45 685.394C1181.22 687.511 1177.48 689.466 1174.42 689.908C1167.28 690.938 1159.05 690.191 1151.75 690.181L1110.85 689.825C1105.11 689.547 1096.2 688.675 1091.97 684.5L1091.8 683.888C1091.04 681.363 1090.09 680.261 1088.23 678.5C1088.1 677.528 1087.94 673.842 1087.5 673.228C1086.77 672.228 1084.26 671.224 1084.21 670.005C1083.94 663.69 1080.19 661.312 1079.43 655.5C1078.3 654.216 1076.45 652.669 1076.25 651.004C1075.81 647.182 1074.7 645.346 1072.19 642.5C1072.05 641.331 1072.01 637.793 1071.5 636.945C1070.81 635.817 1069.19 634.986 1068.5 633.86C1067.96 632.979 1067.92 629.815 1067.59 628.601C1067.05 626.636 1065.45 625.726 1064.6 624.02C1062.94 620.666 1063.35 618.721 1060.42 615.788C1060.14 613.906 1060.13 610.159 1058.85 608.875C1056.28 606.297 1055.77 604.34 1055.28 600.808C1054.17 599.603 1052.49 598.333 1052.33 596.709C1051.87 592.161 1049.9 591.607 1048.4 588C1047.69 586.296 1048.09 584.189 1047.35 582.5C1045.86 579.072 1043.8 578.897 1043.42 574.5C1042.24 573.476 1041.14 572.447 1039.74 571.732Z"/>
	<path fill="#FD4852" transform="scale(0.0488281 0.0498047)" d="M919.164 567.38C920.121 563.787 920.781 561.078 923.5 558.418C923.772 556.512 923.825 552.144 925.056 550.849C930.105 545.537 930.761 536.688 934.951 530.951C936.025 529.48 936.023 527.721 936.563 526.04C937.075 524.442 938.671 523.526 939.28 522C939.98 520.249 939.755 518.152 940.5 516.407C941.169 514.84 942.726 513.762 943.5 512.26C944.257 510.792 944.25 508.99 944.942 507.5L951.704 494.5C952.627 492.534 952.563 491.355 954.122 489.668C956.325 487.282 955.551 484.303 956.688 481.5C957.272 480.062 958.773 479.262 959.5 477.953C960.244 476.612 960.219 474.884 960.891 473.5C961.564 472.115 962.877 471.079 963.547 469.687L971.351 452.073C972.347 450.01 971.651 446.278 973.109 444.826C976.953 440.997 978.969 433.479 980.967 428.5C982.641 424.329 986.105 419.974 987.559 415.813C988.145 414.136 987.885 412.122 988.627 410.5C989.324 408.974 991.024 408.011 991.73 406.5C992.442 404.976 992.131 403.056 992.768 401.5C993.361 400.052 994.785 399.006 995.536 397.642C996.678 395.57 996.73 393.669 998.265 391.679C1000.08 389.326 999.999 386.648 1001.07 384C1001.81 382.188 1003.23 380.833 1003.76 378.895C1004.09 377.689 1004.16 374.881 1004.71 373.946C1005.38 372.812 1007.55 371.313 1007.69 370.072C1008.29 364.869 1010.17 362.051 1013.25 357.953C1013.85 357.158 1016.07 354.893 1016.28 354.067C1017.43 349.541 1013.77 341.498 1018.14 338.239C1019.09 337.527 1020.42 337.016 1021.5 336.544C1024.06 337.208 1025.68 337.793 1027.77 339.5C1027.93 340.594 1028.01 343.866 1028.5 344.657C1029.24 345.835 1031 346.802 1031.63 348C1032.04 348.775 1032.04 351.928 1032.2 353.011C1032.97 358.235 1035.49 362.769 1039.66 366.063C1040.69 371.621 1043.86 374.984 1044.44 380.606L1045.07 381.229C1048.38 384.588 1047.47 387.002 1048.87 391C1049.7 393.347 1051.53 394.821 1052.25 397.351C1052.93 399.765 1054.64 400.467 1055.66 402.5C1057.69 406.503 1058.71 411.935 1060.46 416.23C1061.14 417.918 1062.76 418.729 1063.57 420.283C1065 423.032 1065.52 426.761 1066.87 429.748C1068.28 432.859 1070.32 434.741 1071.83 437.5C1074.11 441.693 1074.51 448.093 1076.73 452.5C1077.5 454.024 1079.29 454.834 1079.9 456.55C1081.62 461.374 1082.6 467.261 1086.38 471.043C1089.83 474.492 1090.49 483.058 1092.83 487.5C1093.61 488.963 1095.02 490.048 1095.81 491.5C1097.85 495.259 1098.81 500.265 1101.1 504C1101.87 505.254 1103.15 506.19 1103.84 507.5C1105.81 511.251 1106.44 516.916 1108.53 520.5C1109.29 521.799 1110.77 522.523 1111.38 523.995C1113.93 530.162 1113.68 535.629 1118.54 541.041C1122.89 545.882 1122.53 554.873 1127.33 560C1127.82 562.93 1128.82 566.298 1127.58 569.119C1120.96 573.387 1106.61 569.634 1099 569.277C1087.01 568.715 1074.94 569.806 1062.95 569.635C1058.21 569.567 1047.28 567.786 1043.25 569.5C1042.12 569.982 1040.8 571.059 1039.74 571.732C1039.88 569.868 1039.54 567.761 1039.41 565.882C1036.49 563.735 1035.98 561.853 1034.13 558.954C1031.2 554.367 1032.31 550.193 1031.85 545C1031.58 541.807 1030.76 539.039 1028 537.097C1025.96 535.657 1022.87 534.194 1020.37 534.709C1014.14 535.988 1017.26 540.918 1015.63 544.825C1015.11 546.09 1013.06 547.793 1012.23 549.15C1011.01 551.113 1009.42 553.28 1008.76 555.5C1007.81 558.707 1008.76 561.545 1006.42 564.283C1005.59 565.252 1004.98 566.325 1004.31 567.404C987.734 570.914 971.224 568.175 954.5 568.234C943.085 568.274 930.111 570.904 919.164 567.38Z"/>
	<path fill="#201C1C" transform="scale(0.0488281 0.0498047)" d="M1484.66 334.499L1491.94 333.893C1506.49 333.086 1521.41 333.761 1536 333.791L1620.89 333.956L1688.63 333.756C1700.38 333.721 1712.67 332.976 1724.35 334.024C1726.91 334.254 1729.48 335.351 1731.32 337.174C1731.92 337.773 1732.01 337.823 1732.03 338.668L1732.15 403.055C1722.81 407.232 1713.66 406.095 1703.65 406.03L1667.93 405.174C1662.8 404.908 1655.86 403.593 1650.94 404.577C1648.92 404.982 1645 407.192 1644.45 409.362C1644.14 410.615 1645 414.1 1645.21 415.483C1645.97 420.585 1646.73 425.714 1647.04 430.867L1647.53 477.302C1647.54 486.721 1648.31 496.645 1647.37 506C1646.95 510.178 1645.32 514.079 1644.83 518.175C1644.28 522.831 1645.03 527.364 1642.38 531.498C1643.5 533.359 1644.07 534.667 1644.19 536.844L1647.89 594.5C1645.53 596.145 1643.76 596.587 1641 596.997C1638.19 594.535 1632.33 589.989 1628.89 588.791C1626.26 587.876 1624.52 585.896 1622 584.878C1605.14 578.063 1592.07 585.956 1577.5 592.905C1576.34 595.297 1575.11 596.882 1572.5 597.757C1569.95 598.613 1567.34 598.189 1565.05 596.887C1561.24 590.516 1565.24 573.999 1565.69 566.29L1566.06 543.164L1564.94 443.106L1564.55 422.228C1564.34 417.602 1563.55 413.003 1564.36 408.393L1564.5 407.637C1560.59 404.92 1551.98 406.068 1547.09 406.074L1507.36 406.154C1501.77 406.153 1494.5 406.929 1489.16 405.734C1485.89 405.001 1483.07 402.78 1480.5 400.723C1478.66 395.029 1479.69 386.588 1479.69 380.576C1479.69 367.773 1478.88 354.211 1479.94 341.5C1480.25 337.759 1482.08 336.828 1484.66 334.499Z"/>
	<path fill="#201C1C" transform="scale(0.0488281 0.0498047)" d="M321.157 334.083L372.235 334.036L468.447 334.31L532.238 333.904C541.254 333.837 553.086 332.285 561.696 334.372C567.362 335.746 567.938 337.869 570.72 342.5C569.109 347.378 570.153 351.148 570.22 356.064L569.98 378.771L568.273 402.866L561.412 405.043C556.488 406.883 550.391 406.115 545.187 406.115C532.842 406.114 489.94 403.373 482.792 408.698C482.678 408.883 481.682 410.47 481.69 410.5C481.923 411.428 483.704 412.555 483.998 413.5C484.79 416.044 483.897 421.64 483.852 424.584L482.393 527.642C483.282 549.511 485.959 573.313 483.926 595L482 596.085C478.806 596.119 475.59 596.477 472.907 594.48C468.964 591.544 464.838 587.81 460.198 586.076C449.294 581.999 435.423 579.861 424.427 584.985C419.489 587.286 411.312 590.367 408.216 595.075L407.961 595.5C404.838 596.207 403.935 595.807 401.005 594.808C398.271 590.172 399.884 561.988 399.876 555.193L399.74 458.562C399.715 441.294 400.61 423.476 399.222 406.279L326.002 406.236C321.779 406.098 318.851 405.771 315.794 402.5C316.717 387.982 315.842 373.032 315.601 358.482C315.484 351.429 314.98 343.985 316.011 337L321.157 334.083Z"/>
	<path fill="#201C1C" transform="scale(0.0488281 0.0498047)" d="M1302.39 335.5L1315 334.574C1338.92 334.762 1359.49 340.523 1380.19 352.438C1383.81 354.519 1388.9 356.908 1391.76 359.869C1394.2 362.395 1397.54 364.002 1399.72 366.747C1402.23 369.898 1406.33 373.996 1409.31 376.69C1412.05 379.176 1412.05 382.167 1414.89 384.728L1415.5 385.274C1416.06 388.513 1416.6 390.434 1418.92 392.847C1420.09 394.056 1419.92 397.427 1420.33 399.171C1420.85 401.376 1422.58 402.753 1423.32 404.796C1424.37 407.686 1423.89 410.564 1425.62 413.289C1430.95 421.658 1424.81 433.287 1429.35 441.429L1429.71 442C1428.93 444.069 1428.65 445.274 1426.5 446.317C1421.08 448.936 1412.41 446.186 1406.5 446.162L1374.21 446.667C1367.6 446.765 1359.68 447.429 1353.5 444.821C1350.87 441.523 1352.18 440.255 1351.12 436.5C1350.7 435.018 1349.4 433.931 1348.85 432.5C1348.07 430.433 1348.1 428.016 1347.19 426C1346.33 424.101 1344.57 423.55 1344.03 421.257L1343.41 419.029C1342.39 416.505 1334.74 409.426 1332.28 408.418C1320.73 403.696 1311.71 402.621 1299.99 407.537C1297.36 408.641 1289.19 415.382 1288.18 417.969C1287.85 418.826 1287.62 419.491 1287.1 420.269L1285.56 422.5C1282.79 426.545 1284 441.083 1284.71 446C1286.38 447.448 1290.29 452.083 1291.24 453.993C1293.1 457.714 1297.02 459.426 1300.33 461.733C1317.44 473.638 1338.95 481.655 1357.45 491.4C1365.83 495.81 1374.66 501.188 1382.5 506.474C1392.52 513.23 1404.12 524.063 1411.03 533.956C1412.24 535.693 1413.26 536.828 1414.9 538.142L1415.44 538.568C1416.36 542.203 1418.07 542.448 1419.5 545.262C1420.56 547.352 1420.03 549.334 1421.66 551.334C1424.58 554.923 1423.71 559.173 1425.65 563.207C1426.54 565.046 1427.38 566.665 1427.64 568.713C1428.86 578.186 1427.95 588.747 1427.98 598.342C1427.99 601.986 1428.71 607.798 1426.35 610.805C1423.98 613.829 1424.09 618.76 1423.74 622.5C1420.38 626.265 1421.2 630.533 1418.46 633.641C1416.27 636.132 1416.5 639.153 1414.36 641.675C1412.65 643.69 1412.76 646.017 1410.78 647.729C1406.51 651.431 1403.54 657.852 1398.88 661.51C1398.28 661.981 1397.74 662.351 1397.29 662.968C1396.87 663.53 1396.55 664.026 1396.02 664.5C1377.43 680.923 1349.21 690.356 1324.75 690.131C1300.65 692.79 1272.3 687.24 1252.61 672.608C1250.27 670.869 1245.56 668.924 1244.22 666.514C1242.69 663.758 1238.41 662.242 1236.13 660C1234.69 658.589 1233.68 656.746 1232.07 655.5C1230.82 654.538 1229.09 653.793 1228.3 652.406C1227.95 651.792 1227.71 651.409 1227.22 650.861C1226.36 649.876 1225.5 649.023 1224.92 647.829C1223.85 645.651 1223.06 644.75 1221.14 643.335L1220.5 642.869C1219.69 639.541 1217.88 639.104 1216.57 636.5C1215.87 635.127 1216.07 633.368 1215.37 632C1214.69 630.679 1213.17 629.864 1212.5 628.539C1211.03 625.63 1211.66 623.887 1209.12 621.106C1207.49 619.33 1207.75 612.629 1206.16 609.734C1203 603.958 1203.84 596.147 1203.56 589.684C1203.47 587.471 1202.86 583.699 1203.63 581.637C1204.32 579.79 1206.97 578.783 1208.72 578.164C1212.57 576.804 1218.29 577.434 1222.4 577.396L1254.5 577.1C1260.28 576.992 1266.25 575.943 1272.01 576.295C1274.33 576.437 1276.42 577.261 1278.5 578.235C1280.82 580.809 1280.28 583.099 1280.49 586.5C1282.17 588.153 1283.4 589.3 1283.91 591.705L1284.97 596C1287.65 598.153 1287.5 600.488 1289.54 602.501C1290.05 603.016 1290.51 603.44 1290.95 604.03C1292.9 606.626 1295.37 608.567 1297.92 610.549C1304.13 615.38 1317.04 618.646 1324.8 617.527C1330.24 616.742 1340.13 615.334 1343.49 610.52L1344.65 608.795C1345.39 607.706 1346.17 606.808 1347.1 605.871C1347.81 605.146 1347.92 602.598 1348.09 601.5L1349.5 599.769L1350.03 599.082C1352.64 595.727 1352.15 586.948 1351.75 582.73C1351.19 576.796 1347.19 572.623 1342.59 568.907C1342.02 568.45 1341.51 568.044 1341.01 567.511C1331.41 557.217 1316.75 551.703 1304.12 546.329L1271.96 531.256C1262.56 526.517 1252.98 521.733 1245.16 514.53C1240.62 510.345 1234.88 507.286 1230.09 503.258C1228.08 501.568 1227.35 499.072 1225.13 497.187L1224.5 496.657C1224.17 494.778 1220.05 488.764 1218.66 487.309C1216.89 485.457 1216.34 484.664 1215.72 482.217C1215.26 480.42 1213.08 480.113 1212.34 478.699C1211.24 476.576 1212.12 473.515 1210.5 470.983C1207.18 465.792 1208.95 460.734 1206.28 455.542C1202.82 448.794 1203.88 439.664 1203.87 432.176C1203.86 429.071 1203.44 424.848 1204.13 421.87C1204.7 419.431 1206.51 417.838 1207.12 415.5C1207.91 412.483 1207.32 408.956 1208.32 406C1209.02 403.947 1210.81 402.486 1211.49 400.5C1212.2 398.414 1212.21 395.704 1212.31 393.5L1215.08 391.076C1215.55 389.046 1215.87 387.664 1217.3 386.085C1217.98 385.344 1218.47 384.833 1218.91 383.916C1219.71 382.216 1220.06 381.415 1221.57 380.199C1223.34 378.776 1223.53 377.332 1224.96 375.777C1226.68 373.907 1229.78 372.106 1230.9 369.916C1232.94 365.956 1236.93 364.45 1239.75 361.094C1242.77 357.498 1247.56 355.243 1251.54 352.855C1267.86 343.058 1283.32 337.26 1302.39 335.5Z"/>
	<path fill="#201C1C" transform="scale(0.0488281 0.0498047)" d="M631.388 334.356L735.619 334.616L795.822 334.136C806.055 334.052 816.704 333.37 826.906 334.044C830.849 334.305 834.798 335.443 838.5 336.789C839.886 338.398 841.577 339.383 843.015 340.859C844.673 342.563 843.757 356.053 843.773 359.287L844.179 400.056C840.733 403.479 838.111 405.804 833.228 406.923L832.5 407.085C816.648 410.781 797.257 406.734 781.034 406.415L723.263 406.454C716.331 406.4 705.616 404.962 699 406.662C696.095 407.408 694.668 408.482 693.21 411C694.129 412.862 694.592 414.74 694.846 416.796C696.243 428.12 693.992 439.846 694.468 451.236C694.603 454.476 696.6 463.083 695.563 465.793C695.263 466.577 694.046 467.776 693.5 468.49L693.733 470.13C695.846 471.715 698.106 473.117 700.783 473.431C703.715 473.775 707.014 472.963 710 472.851L729.661 472.674L804.983 472.809C814.097 472.706 825.473 471.1 834.403 472.468C837.914 473.006 841.464 475.256 844.519 477.002C842.229 498.186 843.957 521.127 844.074 542.5C839.735 545.498 835.511 546.961 830.278 547.629C819.49 549.006 808.525 547.179 797.716 546.933L729.119 547.044C719.982 547.084 709.003 545.844 700.118 547.07C698.543 547.287 696.894 548.125 695.489 548.851L694.614 549.313C695.541 555.886 694.486 562.13 694.344 568.673C694.073 581.168 694.277 593.08 695.795 605.5C694.804 607.086 693.721 608.451 692.5 609.866C693.605 612.037 693.833 612.751 696.375 613.432C704.63 615.643 715.703 614.182 724.237 614.134L793.118 613.746C806.921 613.576 822.646 612.048 836.28 614.139C839.09 614.57 842.001 616.431 844.372 617.918L843.765 684.88C840.047 687.971 834.89 689.361 830.108 689.745C818.287 690.695 806.36 689.475 794.552 688.995L755.879 688.46L632.867 688.507C629.77 688.368 624.11 688.479 621.5 686.674C619.986 685.627 617.773 682.234 616.382 680.716C614.279 654.815 615.678 627.847 615.669 601.831L615.824 451.085L615.73 375.603C615.717 364.586 614.129 350.561 616.5 339.881C620.564 335.55 625.818 335.262 631.388 334.356Z"/>
</svg>
